<?xml version="1.0" encoding="utf-8"?>
<!-- Generator: Adobe Illustrator 24.0.1, SVG Export Plug-In . SVG Version: 6.00 Build 0)  -->
<svg version="1.1" id="圖層_1" xmlns="http://www.w3.org/2000/svg" xmlns:xlink="http://www.w3.org/1999/xlink" x="0px" y="0px"
	 viewBox="0 0 18 16.2" style="enable-background:new 0 0 18 16.2;" xml:space="preserve">
<style type="text/css">
	.st0{fill:none;}
	.st1{fill:#F74141;}
</style>
<path class="st0" d="M0,0"/>
<path id="like" class="st1" d="M17.9,5.6c0-2.9-2.3-5.3-5.2-5.4C11.3,0.2,10,0.8,9,1.9c-1-1-2.3-1.6-3.7-1.6c-2.9,0-5.2,2.4-5.2,5.3
	c0,0.1,0,0.2,0,0.3V6c0,0.6,0.1,1.2,0.4,1.7c0,0,0,0,0,0.1c1.6,3.8,7.6,8.1,7.9,8.3c0.3,0.3,0.8,0.3,1.1,0c0.2-0.2,5.4-3.9,7.5-7.4
	c0.1-0.1,0.1-0.2,0.2-0.3V8.3l0,0l0,0c0.1-0.2,0.2-0.4,0.3-0.7c0.2-0.5,0.3-1,0.3-1.5V5.8C17.9,5.8,17.9,5.7,17.9,5.6z"/>
</svg>
