<svg xmlns="http://www.w3.org/2000/svg" width="60" height="60" viewBox="0 0 60 60">
  <g id="line" transform="translate(0 -0.056)">
    <circle id="Ellipse_15" data-name="Ellipse 15" cx="30" cy="30" r="30" transform="translate(0 0.056)" fill="#03bc2f"/>
    <g id="TYPE_A" data-name="TYPE A" transform="translate(-366.059 -244.849)">
      <g id="Group_1465" data-name="Group 1465" transform="translate(377.059 256.905)">
        <path id="Path_266" data-name="Path 266" d="M415.059,272.324c0-8.5-8.523-15.419-19-15.419s-19,6.917-19,15.419c0,7.622,6.76,14,15.89,15.212.619.133,1.461.408,1.674.937a3.907,3.907,0,0,1,.061,1.718s-.223,1.34-.271,1.626c-.083.48-.382,1.879,1.646,1.024S407,286.4,410.987,281.81h0c2.754-3.02,4.073-6.084,4.073-9.487" transform="translate(-377.059 -256.905)" fill="#fff"/>
        <g id="Group_1464" data-name="Group 1464" transform="translate(6.233 11.31)">
          <path id="Path_267" data-name="Path 267" d="M409.66,282.914h-1.333a.37.37,0,0,0-.37.369v8.279a.37.37,0,0,0,.37.369h1.333a.37.37,0,0,0,.37-.369v-8.279a.37.37,0,0,0-.37-.369" transform="translate(-400.753 -282.914)" fill="#00b900"/>
          <path id="Path_268" data-name="Path 268" d="M423.211,282.914h-1.333a.37.37,0,0,0-.37.369V288.2l-3.794-5.123a.408.408,0,0,0-.029-.038l0,0c-.007-.008-.015-.016-.022-.023l-.007-.006-.02-.017-.01-.007-.019-.013-.011-.007-.02-.011-.012-.006-.021-.009-.012,0-.022-.007-.013,0-.021,0-.016,0-.02,0h-1.365a.37.37,0,0,0-.37.369v8.279a.37.37,0,0,0,.37.369h1.333a.37.37,0,0,0,.37-.369v-4.917l3.8,5.13a.374.374,0,0,0,.094.091l0,0,.023.014.011.006.017.009.018.008.011,0,.025.008h.005a.377.377,0,0,0,.095.013h1.333a.37.37,0,0,0,.37-.369v-8.279a.37.37,0,0,0-.37-.369" transform="translate(-405.131 -282.914)" fill="#00b900"/>
          <path id="Path_269" data-name="Path 269" d="M397.086,289.858h-3.621v-6.575a.37.37,0,0,0-.37-.37h-1.333a.37.37,0,0,0-.37.37v8.278h0a.367.367,0,0,0,.1.256l.005.006.005.005a.367.367,0,0,0,.256.1h5.324a.37.37,0,0,0,.37-.37v-1.333a.37.37,0,0,0-.37-.37" transform="translate(-391.392 -282.913)" fill="#00b900"/>
          <path id="Path_270" data-name="Path 270" d="M442.491,284.987a.37.37,0,0,0,.369-.37v-1.333a.37.37,0,0,0-.369-.37h-5.325a.367.367,0,0,0-.257.1l0,0-.006.007a.366.366,0,0,0-.1.255h0v8.277h0a.366.366,0,0,0,.1.256l.005.006.005,0a.367.367,0,0,0,.256.1h5.325a.37.37,0,0,0,.369-.37v-1.333a.37.37,0,0,0-.369-.37H438.87v-1.4h3.621a.37.37,0,0,0,.369-.37v-1.332a.37.37,0,0,0-.369-.37H438.87v-1.4Z" transform="translate(-417.052 -282.914)" fill="#00b900"/>
        </g>
      </g>
    </g>
  </g>
</svg>
