<svg width="40" height="27" viewBox="0 0 40 27" fill="none" xmlns="http://www.w3.org/2000/svg">
<path fill-rule="evenodd" clip-rule="evenodd" d="M11.8473 0.910998C11.9181 0.84177 11.9864 0.810059 12.0447 0.810059C12.1512 0.810059 12.2221 0.906903 12.2221 1.01568C12.2158 1.08593 12.1869 1.16164 12.1208 1.22643C9.55193 4.47315 7.68134 8.273 7.68134 13.5406C7.68134 18.8044 9.55193 22.5285 12.1208 25.7753C12.1869 25.8411 12.2158 25.9175 12.2221 25.9836C12.2221 26.0972 12.1512 26.1903 12.0447 26.1903C11.9864 26.1903 11.9181 26.1633 11.8473 26.0924L0.89881 15.323C0.352806 14.848 0 14.2935 0 13.5034C0 12.7075 0.352806 12.1544 0.89881 11.6831L11.8473 0.910998Z" fill="white"/>
<path fill-rule="evenodd" clip-rule="evenodd" d="M20.1958 0C15.9138 0 14.2349 6.17837 14.2349 13.5411C14.2349 20.9065 15.9138 27 20.1958 27C22.7746 27 24.967 25.4682 24.9775 24.2092C24.9775 23.935 24.8688 23.6738 24.6441 23.4409C23.4235 22.2436 22.9447 21.0456 22.9421 19.9899C22.9379 17.9708 24.6588 16.4683 26.2459 16.4683C28.4242 16.4683 29.7141 18.2156 29.7141 20.4694C29.7141 22.6095 28.8142 24.3902 27.8383 25.818C27.8031 25.8747 27.7852 25.9405 27.7852 25.995C27.7852 26.1096 27.8524 26.199 27.9433 26.199C28.0078 26.199 28.0719 26.1686 28.1496 26.0922L39.1022 15.3239C39.6508 14.8485 40 14.2937 40 13.5039C40 12.7084 39.6508 12.1552 39.1022 11.6833L28.1496 0.911518C28.0719 0.836837 28.0078 0.802736 27.9433 0.802736C27.8488 0.802736 27.7852 0.897875 27.7852 1.00768C27.7852 1.06463 27.8031 1.12976 27.8383 1.19148C28.8142 2.6128 29.7141 4.39763 29.7141 6.53509C29.7141 8.78985 28.4242 10.5341 26.2459 10.5341C24.6588 10.5341 22.9379 9.0326 22.9421 7.01317C22.9447 5.95946 23.4235 4.76045 24.6441 3.56388C24.8688 3.33131 24.9775 3.06976 24.9775 2.79524C24.967 1.53317 22.7746 0 20.1958 0Z" fill="white"/>
</svg>
