<svg width="120" height="107" viewBox="0 0 120 107" fill="none" xmlns="http://www.w3.org/2000/svg">
<path fill-rule="evenodd" clip-rule="evenodd" d="M51.8473 40.9111C51.9181 40.8419 51.9864 40.8102 52.0447 40.8102C52.1512 40.8102 52.2221 40.907 52.2221 41.0158C52.2158 41.0861 52.1869 41.1618 52.1208 41.2265C49.5519 44.4733 47.6813 48.2731 47.6813 53.5407C47.6813 58.8045 49.5519 62.5286 52.1208 65.7754C52.1869 65.8412 52.2158 65.9176 52.2221 65.9837C52.2221 66.0973 52.1512 66.1904 52.0447 66.1904C51.9864 66.1904 51.9181 66.1634 51.8473 66.0925L40.8988 55.3231C40.3528 54.8481 40 54.2936 40 53.5035C40 52.7076 40.3528 52.1545 40.8988 51.6832L51.8473 40.9111Z" fill="#FD0202"/>
<path fill-rule="evenodd" clip-rule="evenodd" d="M60.1958 40C55.9139 40 54.2349 46.1784 54.2349 53.5411C54.2349 60.9065 55.9139 67 60.1958 67C62.7746 67 64.9671 65.4682 64.9776 64.2092C64.9776 63.935 64.8689 63.6738 64.6442 63.4409C63.4235 62.2436 62.9447 61.0456 62.9421 59.9899C62.9379 57.9708 64.6589 56.4683 66.246 56.4683C68.4242 56.4683 69.7141 58.2156 69.7141 60.4694C69.7141 62.6095 68.8143 64.3902 67.8383 65.818C67.8031 65.8747 67.7853 65.9405 67.7853 65.995C67.7853 66.1096 67.8525 66.199 67.9433 66.199C68.0079 66.199 68.0719 66.1686 68.1496 66.0922L79.1023 55.3239C79.6509 54.8485 80 54.2937 80 53.5039C80 52.7084 79.6509 52.1552 79.1023 51.6833L68.1496 40.9115C68.0719 40.8368 68.0079 40.8027 67.9433 40.8027C67.8488 40.8027 67.7853 40.8979 67.7853 41.0077C67.7853 41.0646 67.8031 41.1298 67.8383 41.1915C68.8143 42.6128 69.7141 44.3976 69.7141 46.5351C69.7141 48.7898 68.4242 50.5341 66.246 50.5341C64.6589 50.5341 62.9379 49.0326 62.9421 47.0132C62.9447 45.9595 63.4235 44.7604 64.6442 43.5639C64.8689 43.3313 64.9776 43.0698 64.9776 42.7952C64.9671 41.5332 62.7746 40 60.1958 40Z" fill="#1E5BC6"/>
</svg>
