<?xml version="1.0" encoding="utf-8"?>
<!-- Generator: Adobe Illustrator 24.0.1, SVG Export Plug-In . SVG Version: 6.00 Build 0)  -->
<svg version="1.1" id="圖層_1" xmlns="http://www.w3.org/2000/svg" xmlns:xlink="http://www.w3.org/1999/xlink" x="0px" y="0px"
	 viewBox="0 0 154.5 154.5" style="enable-background:new 0 0 154.5 154.5;" xml:space="preserve">
<style type="text/css">
	.st0{fill:#2358A7;}
	.st1{fill:none;}
	.st2{fill:#FFFFFF;}
</style>
<circle id="椭圆_15" class="st0" cx="77.3" cy="77.3" r="77.3"/>
<g id="mail" transform="translate(5.934 9.245)">
	<path id="矩形_237" class="st1" d="M29.8,38.4h82c2.8,0,5.2,2.3,5.2,5.2V93c0,2.8-2.3,5.2-5.2,5.2h-82c-2.8,0-5.2-2.3-5.2-5.2
		V43.5C24.6,40.7,26.9,38.4,29.8,38.4z"/>
	<path class="st2" d="M109.2,100.3H32.6c-5.6,0-10.1-4.5-10.1-10.1V45.8c0-5.5,4.6-10,10.1-10h76.7c5.5,0,10,4.5,10,10v8.5
		c0,2.7-1.8,5-4.5,5.7L71.4,70.2c-0.4,0.1-0.8,0.1-1.2,0l-28.5-6.8c-1.4-0.3-2.2-1.7-1.9-3.1c0.3-1.4,1.7-2.2,3.1-1.9l27.9,6.7
		L113.6,55c0.3-0.1,0.5-0.3,0.5-0.6v-8.5c0-2.7-2.2-4.9-4.9-4.9H32.6c-2.7,0-4.9,2.2-4.9,4.9v44.4c0,2.7,2.2,4.9,4.9,4.9h76.7
		c2.7,0,4.9-2.2,4.9-4.9V66.9c0-1.4,1.2-2.6,2.6-2.6s2.6,1.2,2.6,2.6v23.3C119.3,95.8,114.8,100.3,109.2,100.3z"/>
</g>
</svg>
