<svg width="24" height="24" viewBox="0 0 24 24" fill="none" xmlns="http://www.w3.org/2000/svg">
<g clip-path="url(#clip0_1654_15026)">
<path opacity="0.32" fill-rule="evenodd" clip-rule="evenodd" d="M6 8C6 6.4087 6.63214 4.88258 7.75736 3.75736C8.88258 2.63214 10.4087 2 12 2C13.5913 2 15.1174 2.63214 16.2426 3.75736C17.3679 4.88258 18 6.4087 18 8H19C19.5304 8 20.0391 8.21071 20.4142 8.58579C20.7893 8.96086 21 9.46957 21 10V20C21 20.5304 20.7893 21.0391 20.4142 21.4142C20.0391 21.7893 19.5304 22 19 22H5C4.46957 22 3.96086 21.7893 3.58579 21.4142C3.21071 21.0391 3 20.5304 3 20V10C3 9.46957 3.21071 8.96086 3.58579 8.58579C3.96086 8.21071 4.46957 8 5 8H6ZM12 4C13.0609 4 14.0783 4.42143 14.8284 5.17157C15.5786 5.92172 16 6.93913 16 8H8C8 6.93913 8.42143 5.92172 9.17157 5.17157C9.92172 4.42143 10.9391 4 12 4ZM14 14C14 14.3511 13.9076 14.6959 13.732 15C13.5565 15.304 13.304 15.5565 13 15.732V17C13 17.2652 12.8946 17.5196 12.7071 17.7071C12.5196 17.8946 12.2652 18 12 18C11.7348 18 11.4804 17.8946 11.2929 17.7071C11.1054 17.5196 11 17.2652 11 17V15.732C10.6187 15.5119 10.3208 15.1721 10.1523 14.7653C9.98384 14.3586 9.95429 13.9076 10.0682 13.4824C10.1822 13.0571 10.4333 12.6813 10.7825 12.4133C11.1318 12.1453 11.5597 12 12 12C12.5304 12 13.0391 12.2107 13.4142 12.5858C13.7893 12.9609 14 13.4696 14 14Z" fill="#1877F2"/>
<path d="M13.732 15C13.9075 14.6959 13.9999 14.3511 13.9999 14C13.9999 13.4696 13.7892 12.9609 13.4141 12.5858C13.0391 12.2107 12.5303 12 11.9999 12C11.5597 12 11.1317 12.1453 10.7824 12.4133C10.4332 12.6813 10.1821 13.0571 10.0682 13.4824C9.9542 13.9076 9.98375 14.3586 10.1522 14.7653C10.3207 15.1721 10.6187 15.5119 10.9999 15.732V17C10.9999 17.2652 11.1053 17.5196 11.2928 17.7071C11.4803 17.8946 11.7347 18 11.9999 18C12.2651 18 12.5195 17.8946 12.707 17.7071C12.8946 17.5196 12.9999 17.2652 12.9999 17V15.732C13.3039 15.5565 13.5564 15.304 13.732 15Z" fill="#1877F2"/>
</g>
<defs>
<clipPath id="clip0_1654_15026">
<rect width="24" height="24" fill="white"/>
</clipPath>
</defs>
</svg>
