<svg width="30" height="30" viewBox="0 0 30 30" fill="none" xmlns="http://www.w3.org/2000/svg">
<path opacity="0.32" d="M26.4761 21.2129C26.1214 22.0318 25.2781 22.5 24.3857 22.5H18.5193C18.5577 22.3932 18.5918 22.2837 18.6213 22.1716C18.9636 20.8718 18.6031 19.5488 17.7767 18.6204C18.0818 16.1364 18.2721 13.5916 18.3884 11.5815C18.4461 10.5841 17.2243 10.251 16.7843 11.1441C15.8973 12.9441 14.8116 15.2448 13.8552 17.5513C12.6834 17.9348 11.721 18.8971 11.3787 20.197C11.1705 20.9874 11.2223 21.7864 11.4806 22.5H5.61426C4.72184 22.5 3.8786 22.0318 3.52397 21.2129C2.86515 19.6916 2.5 18.0134 2.5 16.25C2.5 9.34644 8.09644 3.75 15 3.75C21.9036 3.75 27.5 9.34644 27.5 16.25C27.5 18.0134 27.1349 19.6916 26.4761 21.2129Z" fill="white"/>
<path d="M18.3884 11.5815C18.4461 10.5841 17.2243 10.251 16.7843 11.1441C15.8973 12.9441 14.8116 15.2448 13.8552 17.5513C12.6834 17.9348 11.721 18.8971 11.3787 20.197C10.8428 22.232 12.0297 24.3238 14.0297 24.8691C16.0297 25.4144 18.0854 24.2067 18.6213 22.1716C18.9636 20.8718 18.6031 19.5488 17.7767 18.6204C18.0818 16.1364 18.2721 13.5916 18.3884 11.5815Z" fill="white"/>
</svg>
