<svg width="30" height="30" viewBox="0 0 30 30" fill="none" xmlns="http://www.w3.org/2000/svg">
<path fill-rule="evenodd" clip-rule="evenodd" d="M4.625 4C3.92881 4 3.26113 4.27667 2.76884 4.76915C2.27656 5.26162 2 5.92956 2 6.62603V18.4432C2 18.7914 2.13828 19.1254 2.38442 19.3716C2.63056 19.6178 2.9644 19.7562 3.3125 19.7562H4.01469C3.92186 20.4079 3.97007 21.0719 4.15605 21.7033C4.34204 22.3348 4.66145 22.9189 5.09267 23.4161C5.52389 23.9133 6.05686 24.312 6.6555 24.5853C7.25414 24.8586 7.90448 25 8.5625 25C9.22052 25 9.87086 24.8586 10.4695 24.5853C11.0681 24.312 11.6011 23.9133 12.0323 23.4161C12.4636 22.9189 12.783 22.3348 12.9689 21.7033C13.1549 21.0719 13.2031 20.4079 13.1103 19.7562H17.1397C17.0469 20.4079 17.0951 21.0719 17.2811 21.7033C17.467 22.3348 17.7864 22.9189 18.2177 23.4161C18.6489 23.9133 19.1819 24.312 19.7805 24.5853C20.3791 24.8586 21.0295 25 21.6875 25C22.3455 25 22.9959 24.8586 23.5945 24.5853C24.1931 24.312 24.7261 23.9133 25.1573 23.4161C25.5885 22.9189 25.908 22.3348 26.0939 21.7033C26.2799 21.0719 26.3281 20.4079 26.2353 19.7562H26.9375C27.2856 19.7562 27.6194 19.6178 27.8656 19.3716C28.1117 19.1254 28.25 18.7914 28.25 18.4432V13.1911C28.2498 12.9873 28.2022 12.7864 28.1109 12.6042L25.4859 7.35212C25.3769 7.13406 25.2095 6.95063 25.0023 6.82239C24.795 6.69415 24.5562 6.62616 24.3125 6.62603H17.75C17.75 5.92956 17.4734 5.26162 16.9812 4.76915C16.4889 4.27667 15.8212 4 15.125 4H4.625ZM23.252 19.2178L23.273 19.2441C23.5849 19.6612 23.7189 20.1848 23.6458 20.7005C23.5727 21.2162 23.2983 21.6819 22.8828 21.9957C22.4673 22.3096 21.9444 22.446 21.4286 22.3751C20.9128 22.3042 20.4461 22.0318 20.1305 21.6175C19.815 21.2032 19.6764 20.6807 19.745 20.1644C19.8136 19.6481 20.0838 19.18 20.4965 18.8625C20.9093 18.545 21.4309 18.4041 21.9473 18.4704C22.4637 18.5367 22.9328 18.8063 23.252 19.2178ZM10.127 19.2178L10.148 19.2441C10.4599 19.6612 10.5939 20.1848 10.5208 20.7005C10.4477 21.2162 10.1733 21.6819 9.7578 21.9957C9.34228 22.3096 8.81941 22.446 8.30361 22.3751C7.78781 22.3042 7.32108 22.0318 7.00555 21.6175C6.69002 21.2032 6.55137 20.6807 6.61996 20.1644C6.68855 19.6481 6.95878 19.18 7.37153 18.8625C7.78427 18.545 8.30592 18.4041 8.82232 18.4704C9.33873 18.5367 9.80784 18.8063 10.127 19.2178ZM17.7474 11.9017V9.24943H23.5171L24.8296 11.9017H17.7474Z" fill="#1E5BC6" fill-opacity="0.32"/>
<path fill-rule="evenodd" clip-rule="evenodd" d="M23.2985 19.2511L23.2775 19.2249C22.9583 18.8134 22.4892 18.5438 21.9728 18.4774C21.4564 18.4111 20.9347 18.5521 20.522 18.8696C20.1092 19.187 19.839 19.6551 19.7704 20.1715C19.7018 20.6878 19.8405 21.2102 20.156 21.6245C20.4715 22.0388 20.9383 22.3112 21.4541 22.3821C21.9699 22.453 22.4927 22.3166 22.9083 22.0028C23.3238 21.6889 23.5981 21.2232 23.6712 20.7075C23.7444 20.1919 23.6103 19.6682 23.2985 19.2511ZM10.1735 19.2511L10.1525 19.2249C9.83329 18.8134 9.36418 18.5438 8.84778 18.4774C8.33138 18.4111 7.80973 18.5521 7.39699 18.8696C6.98424 19.187 6.71401 19.6551 6.64542 20.1715C6.57683 20.6878 6.71547 21.2102 7.03101 21.6245C7.34654 22.0388 7.81327 22.3112 8.32907 22.3821C8.84487 22.453 9.36774 22.3166 9.78326 22.0028C10.1988 21.6889 10.4731 21.2232 10.5462 20.7075C10.6194 20.1919 10.4853 19.6682 10.1735 19.2511ZM17.7728 9.25647V11.9088H24.8551L23.5426 9.25647H17.7728Z" fill="#1E5BC6"/>
</svg>
