<svg width="30" height="30" viewBox="0 0 30 30" fill="none" xmlns="http://www.w3.org/2000/svg">
<path opacity="0.32" fill-rule="evenodd" clip-rule="evenodd" d="M26.1393 10.2837C24.3396 10.7364 22.2147 10.7664 20.3794 10.2057C19.6035 9.96869 18.9985 9.36425 18.7366 8.59637C18.0842 6.68346 17.9231 4.34203 18.4026 2.53975C17.4099 2.51482 16.281 2.5 15 2.5C10.6447 2.5 8.04931 2.67103 6.57856 2.82974C5.48896 2.94731 4.64877 3.68533 4.44476 4.76209C4.12719 6.43819 3.75 9.57156 3.75 15C3.75 20.4284 4.12719 23.5618 4.44476 25.2379C4.64877 26.3147 5.48896 27.0527 6.57856 27.1702C8.04931 27.3289 10.6447 27.5 15 27.5C19.3553 27.5 21.9507 27.3289 23.4214 27.1702C24.5111 27.0527 25.3512 26.3147 25.5553 25.2379C25.8728 23.5618 26.25 20.4284 26.25 15C26.25 13.1806 26.2076 11.619 26.1393 10.2837ZM10 16.25C9.30963 16.25 8.75 15.6904 8.75 15C8.75 14.3096 9.30963 13.75 10 13.75H15C15.6904 13.75 16.25 14.3096 16.25 15C16.25 15.6904 15.6904 16.25 15 16.25H10ZM10 21.875C9.30963 21.875 8.75 21.3154 8.75 20.625C8.75 19.9346 9.30963 19.375 10 19.375H18.75C19.4404 19.375 20 19.9346 20 20.625C20 21.3154 19.4404 21.875 18.75 21.875H10Z" fill="#1E5BC6"/>
<path d="M8.75 20.625C8.75 21.3154 9.30963 21.875 10 21.875H18.75C19.4404 21.875 20 21.3154 20 20.625C20 19.9346 19.4404 19.375 18.75 19.375H10C9.30963 19.375 8.75 19.9346 8.75 20.625Z" fill="#1E5BC6"/>
<path d="M8.75 15C8.75 15.6904 9.30963 16.25 10 16.25H15C15.6904 16.25 16.25 15.6904 16.25 15C16.25 14.3096 15.6904 13.75 15 13.75H10C9.30963 13.75 8.75 14.3096 8.75 15Z" fill="#1E5BC6"/>
<path d="M26.1393 10.2837C24.3396 10.7364 22.2148 10.7664 20.3794 10.2057C19.6035 9.96869 18.9985 9.36425 18.7366 8.59637C18.0843 6.68343 17.9231 4.34196 18.4026 2.53967C18.4026 2.53967 19.9327 3.12492 22.7452 5.93742C25.5577 8.74994 26.1393 10.2837 26.1393 10.2837Z" fill="#1E5BC6"/>
</svg>
