<svg width="30" height="30" viewBox="0 0 30 30" fill="none" xmlns="http://www.w3.org/2000/svg">
<path opacity="0.32" d="M5.4124 7.5C4.81089 7.5 4.29404 7.92981 4.18567 8.5215C2.47868 17.8405 2.1875 22.5 2.1875 22.5H27.8125C27.8125 22.5 27.5212 17.8405 25.8143 8.5215C25.7059 7.92981 25.1891 7.5 24.5876 7.5H5.4124Z" fill="white"/>
<path fill-rule="evenodd" clip-rule="evenodd" d="M27.8125 22.5H2.1875C2.1875 22.5 2.1875 23.3687 2.25152 24.5942C2.34102 26.3074 3.69527 27.6076 5.40957 27.6725C7.31875 27.7449 10.3477 27.8125 15 27.8125C19.6523 27.8125 22.6812 27.7449 24.5904 27.6725C26.3048 27.6076 27.659 26.3074 27.7485 24.5942C27.8125 23.3687 27.8125 22.5 27.8125 22.5Z" fill="white"/>
<path d="M15 1.25C11.5483 1.25 8.75 4.04822 8.75 7.5H11.25C11.25 5.42893 12.9289 3.75 15 3.75C17.0711 3.75 18.75 5.42893 18.75 7.5H21.25C21.25 4.04822 18.4517 1.25 15 1.25Z" fill="white"/>
</svg>
