<svg width="30" height="30" viewBox="0 0 30 30" fill="none" xmlns="http://www.w3.org/2000/svg">
<path opacity="0.32" d="M2.85124 24.5719C2.96207 25.6451 3.66576 26.4947 4.72109 26.7194C6.38688 27.074 9.527 27.5 15 27.5C20.473 27.5 23.6131 27.074 25.2789 26.7194C26.3342 26.4947 27.0379 25.6451 27.1488 24.5719C27.3131 22.9805 27.5 20.0587 27.5 15C27.5 9.94131 27.3131 7.0195 27.1488 5.42814C27.0379 4.35486 26.3343 3.5053 25.2789 3.28063C23.6131 2.92601 20.473 2.5 15 2.5C9.527 2.5 6.38688 2.92601 4.72109 3.28063C3.66576 3.5053 2.96207 4.35486 2.85124 5.42814C2.6869 7.0195 2.5 9.94131 2.5 15C2.5 20.0587 2.6869 22.9805 2.85124 24.5719Z" fill="white"/>
<path d="M17.4227 17.3198C19.0787 16.4478 20.2078 14.7099 20.2078 12.7083C20.2078 9.83187 17.8759 7.5 14.9994 7.5C12.123 7.5 9.79114 9.83187 9.79114 12.7083C9.79114 14.71 10.9203 16.448 12.5764 17.3199C10.3586 18.1649 8.6652 20.1365 8.14064 22.5661C8.06807 22.9024 8.25307 23.2476 8.59176 23.3089C9.80726 23.5288 11.8202 23.75 15.0008 23.75C18.1813 23.75 20.1942 23.5288 21.4097 23.3089C21.7471 23.2478 21.9317 22.9039 21.8594 22.5689C21.3356 20.1379 19.6416 18.1651 17.4227 17.3198Z" fill="white"/>
</svg>
